<?xml version="1.0" encoding="UTF-8"?>
<svg width="121px" height="30px" viewBox="0 0 121 30" version="1.1" xmlns="http://www.w3.org/2000/svg" xmlns:xlink="http://www.w3.org/1999/xlink">
    <title>ic_Logo_Header</title>
    <g id="Page-1" stroke="none" stroke-width="1" fill="none" fill-rule="evenodd">
        <g id="01.02.Home" transform="translate(-18.000000, -61.000000)">
            <g id="components/header/light/header-&lt;-576" transform="translate(0.000000, 42.240000)">
                <g id="ic_Logo_Header" transform="translate(18.240000, 19.200000)">
                    <path d="M107.776328,22.6872939 C108.129725,22.6872939 108.483121,22.8242663 108.75447,23.098211 C109.298239,23.6626697 109.298239,24.5651409 108.75447,25.1295996 C108.211237,25.677489 107.34142,25.677489 106.798187,25.1295996 C106.269969,24.5811578 106.269969,23.6786866 106.798187,23.098211 C107.070072,22.8242663 107.422932,22.6872939 107.776328,22.6872939 M103.432072,18.5869599 C103.705029,18.5869599 103.975305,18.6952122 104.17694,18.9128216 C104.594688,19.3469356 104.594688,20.0224082 104.17694,20.4565222 C103.774207,20.8911886 103.093691,20.8911886 102.675943,20.4565222 C102.258195,20.0224082 102.258195,19.3469356 102.675943,18.9128216 C102.884549,18.6952122 103.159115,18.5869599 103.432072,18.5869599 M112.05677,17.8037873 C112.521172,17.8037873 112.985039,17.9866012 113.347015,18.352229 C114.054881,19.0995016 114.070969,20.2692898 113.347015,21.0171148 C112.63915,21.7478181 111.490477,21.7478181 110.76706,21.0171148 C110.074746,20.2692898 110.074746,19.0995016 110.76706,18.352229 C111.128501,17.9866012 111.592903,17.8037873 112.05677,17.8037873 M99.1376881,14.3441304 C99.348439,14.3441304 99.5597261,14.4247674 99.7157783,14.5865936 C100.028955,14.9096937 100.028955,15.4426709 99.7157783,15.7817879 C99.4031377,16.1048881 98.8717023,16.1048881 98.5590617,15.7817879 C98.2458849,15.4426709 98.2458849,14.9096937 98.5590617,14.5865936 C98.7151139,14.4247674 98.926401,14.3441304 99.1376881,14.3441304 M107.776328,13.7631025 C108.129725,13.7631025 108.483121,13.9061502 108.75447,14.1916934 C109.298239,14.7627798 109.298239,15.6762971 108.75447,16.2479358 C108.211237,16.8190222 107.34142,16.8190222 106.798187,16.2479358 C106.269969,15.6762971 106.269969,14.7627798 106.798187,14.1916934 C107.070072,13.9061502 107.422932,13.7631025 107.776328,13.7631025 M116.3962,12.7877267 C116.99574,12.7877267 117.595281,13.0263237 118.057538,13.5040701 C118.982054,14.4590105 118.982054,15.9806188 118.057538,16.9355592 C117.132487,17.8904996 115.659376,17.8904996 114.734861,16.9355592 C113.809809,15.9966357 113.809809,14.4590105 114.734861,13.5040701 C115.197118,13.0263237 115.796659,12.7877267 116.3962,12.7877267 M103.432072,9.65724537 C103.705029,9.65724537 103.975305,9.76549772 104.17694,9.98255473 C104.594688,10.4172211 104.594688,11.1087106 104.17694,11.5433769 C103.774207,11.961474 103.093691,11.961474 102.675943,11.5433769 C102.258195,11.1087106 102.258195,10.4172211 102.675943,9.98255473 C102.884549,9.76549772 103.159115,9.65724537 103.432072,9.65724537 M112.066959,8.87793888 C112.527071,8.87793888 112.989329,9.06517127 113.350233,9.43853143 C114.070969,10.1697871 114.070969,11.3395753 113.350233,12.0874002 C112.628961,12.8186559 111.516218,12.8186559 110.795482,12.0874002 C110.090298,11.3395753 110.074746,10.1697871 110.795482,9.43853143 C111.148342,9.06517127 111.60631,8.87793888 112.066959,8.87793888 M107.776328,4.83944866 C108.129725,4.83780642 108.483121,4.9764357 108.75447,5.2619789 C109.298239,5.81649606 109.298239,6.76315184 108.75447,7.317669 C108.211237,7.8893077 107.34142,7.87273846 106.798187,7.317669 C106.269969,6.7465826 106.269969,5.8330653 106.798187,5.2619789 C107.070072,4.98472032 107.422932,4.84167257 107.776328,4.83944866" id="Bubbles" fill="#EC6602"></path>
                    <path d="M23.591977,20.9845838 C22.1547956,20.9845838 21.6555359,22.4752629 21.6555359,24.2741298 C21.6555359,25.7482397 21.9585238,27.0445064 23.2557409,27.0445064 C24.1775748,27.0445064 24.6682543,26.3480461 24.6682543,25.6836196 L24.6682543,21.1789962 C24.6682543,21.0657731 24.0606698,20.9845838 23.591977,20.9845838 L23.591977,20.9845838 Z M78.6059959,20.907813 C77.4106685,20.907813 76.7816335,22.1422212 76.7183546,23.3926464 C77.866491,23.3600602 79.5181772,23.0678893 79.5181772,21.8174642 C79.5181772,21.248587 79.1878399,20.907813 78.6059959,20.907813 L78.6059959,20.907813 Z M70.0284895,20.907813 C68.8176105,20.907813 68.1880392,22.1422212 68.1252966,23.3926464 C69.2889846,23.3600602 70.9251191,23.0678893 70.9251191,21.8174642 C70.9251191,21.248587 70.578694,20.907813 70.0284895,20.907813 L70.0284895,20.907813 Z M14.7908494,20.907813 C13.5794342,20.907813 12.9503992,22.1422212 12.8876565,23.3926464 C14.0513445,23.3600602 15.6869428,23.0678893 15.6869428,21.8174642 C15.6869428,21.248587 15.341054,20.907813 14.7908494,20.907813 L14.7908494,20.907813 Z M52.0176028,19.2144369 L54.6989115,19.2144369 L54.6989115,28.6036716 L53.2676289,28.6036716 L52.0176028,28.6036716 L52.0176028,19.2144369 Z M87.7696365,19.1210969 C88.284984,19.1210969 88.8164194,19.2017338 89.2379211,19.444197 L88.8003315,21.6258133 C88.4254846,21.4319532 87.8715262,21.3027132 87.418385,21.3027132 C86.5281906,21.3027132 86.3383539,21.9163273 85.8020922,22.8701631 L85.8020922,28.6036716 L83.6570452,28.6036716 L83.6570452,20.979613 L83.4430768,19.2144369 L85.426709,19.2144369 L85.6610553,20.6217175 C86.0825571,19.5552109 86.9416484,19.1210969 87.7696365,19.1210969 L87.7696365,19.1210969 Z M78.7314812,19.1210969 C80.5247404,19.1210969 81.6884284,20.046765 81.6884284,21.8008949 C81.6884284,24.5458653 78.9674364,25.081604 76.7971851,25.2113964 C76.9232066,26.0884614 77.4889627,27.0141294 78.8419511,27.0141294 C79.7852355,27.0141294 80.5558436,26.5921662 81.0593934,26.234823 L81.7672589,27.9403498 C81.5624069,28.1027284 80.3204247,28.9632241 78.5271655,28.9632241 C75.5074756,28.9632241 74.3121482,26.9981125 74.3121482,24.2531421 C74.3121482,21.5733441 75.8378129,19.1210969 78.7314812,19.1210969 L78.7314812,19.1210969 Z M70.1539747,19.1210969 C71.947234,19.1210969 73.0953704,20.046765 73.0953704,21.8008949 C73.0953704,24.5458653 70.3899299,25.081604 68.2196787,25.2113964 C68.3457002,26.0884614 68.9119926,27.0141294 70.2644446,27.0141294 C71.2082653,27.0141294 71.9627856,26.5921662 72.4663353,26.234823 L73.1897524,27.9403498 C72.9693488,28.1027284 71.7268304,28.9632241 69.9341074,28.9632241 C66.9299692,28.9632241 65.7346418,26.9981125 65.7346418,24.2531421 C65.7346418,21.5733441 67.2447548,19.1210969 70.1539747,19.1210969 L70.1539747,19.1210969 Z M61.4804774,19.1210969 C63.2244006,19.1210969 64.3516228,20.1390004 64.3516228,22.3206167 L64.3516228,28.6036716 L61.6703141,28.6036716 L61.6703141,22.7889738 C61.6703141,21.8036565 61.5003191,21.0442331 60.5414831,21.0442331 C59.6142866,21.0442331 58.9890054,21.8196734 58.9890054,22.6923199 L58.9890054,28.6036716 L56.8439585,28.6036716 L56.8439585,21.0922839 L56.5345354,19.2144369 L58.5932442,19.2144369 L58.787371,20.3958236 C59.3847666,19.5552109 60.3017741,19.1210969 61.4804774,19.1210969 L61.4804774,19.1210969 Z M24.0188414,19.1210969 C24.6280347,19.1210969 25.7407778,19.2669062 27.349563,19.7855233 L27.349563,26.785474 L27.3281125,28.6036716 L25.2345467,28.6036716 L25.1095977,27.6785559 L25.0313035,27.6691666 C24.5004044,28.5119885 23.6096737,28.8881102 22.6567366,28.8881102 C20.1100296,28.8881102 19.2986656,26.8970402 19.2986656,24.4177299 C19.2986656,21.2259424 20.8940442,19.1210969 24.0188414,19.1210969 L24.0188414,19.1210969 Z M14.8852315,19.1210969 C16.6779545,19.1210969 17.8416424,20.046765 17.8416424,21.8008949 C17.8416424,24.5458653 15.1522898,25.081604 12.9503992,25.2113964 C13.0764207,26.0884614 13.6427131,27.0141294 14.9951652,27.0141294 C15.9389858,27.0141294 16.7095939,26.5921662 17.2126074,26.234823 L17.9204729,27.9403498 C17.7161572,28.1027284 16.4736388,28.9632241 14.6803795,28.9632241 C11.6606897,28.9632241 10.4653623,26.9981125 10.4653623,24.2531421 C10.4653623,21.5733441 11.9910269,19.1210969 14.8852315,19.1210969 L14.8852315,19.1210969 Z M93.0979331,19.1144692 C94.2117487,19.0498492 95.4548034,19.3735016 95.9910651,19.8921187 L95.9910651,19.9081357 L95.2783733,21.6578472 C94.5882044,21.1557993 93.9420091,20.8962146 93.3301344,20.9127838 C92.7654508,20.9288007 92.3165997,21.1878331 92.3326876,21.8036565 C92.3793424,22.5161337 92.9944346,22.6945292 93.7945371,22.9215277 C95.0960443,23.2611971 96.556285,23.6665911 96.6662187,25.5775765 C96.7761523,27.6675097 95.4279903,28.7688117 93.3891232,28.8825871 C91.8205576,28.9632241 90.487411,28.4451593 89.9699184,28.1049376 L90.7072783,26.3717953 C91.3502561,26.712017 92.3541381,27.0842725 93.1542406,27.0356694 C93.8133062,27.0196525 94.2680562,26.712017 94.2364167,26.0150044 C94.189762,25.3025272 93.5623357,25.1567179 92.7777848,24.9462886 C91.4290866,24.6220838 90.067518,24.168639 89.9575844,22.2571013 C89.8637386,20.3295466 91.2628454,19.2276923 93.0979331,19.1144692 L93.0979331,19.1144692 Z M42.3648916,16.4528973 L45.0462003,16.4528973 L45.0462003,20.0953681 C45.582462,19.480097 46.2860374,19.1404277 47.1462012,19.1404277 C48.9920141,19.1404277 49.8725559,20.2251604 49.8725559,22.3951783 L49.8725559,28.6036716 L47.1912472,28.6036716 L47.1912472,22.7834507 C47.1912472,21.8605442 47.2523811,21.1154808 46.313923,21.1154808 C45.4065682,21.1154808 45.0462003,21.8605442 45.0462003,22.7188307 L45.0462003,28.6036716 L42.3648916,28.6036716 L42.3648916,16.4528973 Z M35.393489,16.4528973 L38.0747977,16.4528973 L38.0747977,19.2144369 L40.2198447,19.2144369 L40.2198447,21.4236686 L38.0747977,21.4236686 L38.0747977,25.5599027 C38.0747977,26.5651031 38.222806,26.9699448 38.8791903,26.9699448 C39.1912947,26.9699448 39.5076891,26.8567217 39.9136392,26.6943431 L40.4155802,28.3799869 C39.9002327,28.7367778 38.9038584,28.9632241 38.1230613,28.9632241 C35.5924421,28.9632241 35.393489,27.472545 35.393489,25.9327105 L35.393489,21.4236686 L34.3209656,21.4236686 L34.3209656,19.2144369 L35.393489,19.2144369 L35.393489,16.4528973 Z M29.49461,16.4528973 L31.6396569,16.4528973 L31.6396569,25.5554842 C31.6396569,26.5617892 31.9791106,26.9671833 32.6183346,26.9671833 C32.9304389,26.9671833 33.334244,26.8539601 33.7391216,26.6915816 L34.2844998,28.3794346 C33.7696885,28.7362255 32.8870017,28.9632241 32.123365,28.9632241 C29.5975722,28.9632241 29.49461,27.4703358 29.49461,25.9288444 L29.49461,16.4528973 Z M0.000214504694,16.4528973 L2.68152318,16.4528973 L2.68152318,21.4236686 L5.89909359,21.4236686 L5.89909359,16.4528973 L8.58040227,16.4528973 L8.58040227,28.6036716 L5.89909359,28.6036716 L5.89909359,23.6329003 L2.68152318,23.6329003 L2.68152318,28.6036716 L0.000214504694,28.6036716 L0.000214504694,16.4528973 Z M53.2413521,15.1919783 C54.0366283,15.1919783 54.5825427,15.7956509 54.5825427,16.5136512 C54.5825427,17.2808069 54.0366283,17.8187548 53.2413521,17.8187548 C52.4305244,17.8187548 51.9001615,17.2808069 51.9001615,16.5136512 C51.9001615,15.7956509 52.446076,15.1919783 53.2413521,15.1919783 L53.2413521,15.1919783 Z" id="Healthineers" fill="#EC6602"></path>
                    <path d="M78.2942134,0.435746565 L81.3637755,0.435746565 L84.7293542,7.52240954 L84.7293542,0.435746565 L86.8744011,0.435746565 L86.8744011,10.9295971 L83.6949053,10.9295971 L79.9029986,3.81697568 L79.9029986,10.9295971 L78.2942134,10.9295971 L78.2942134,0.435746565 Z M68.6415021,0.435746565 L76.1491664,0.435746565 L76.1491664,2.09267034 L71.3228108,2.09267034 L71.3228108,4.85420996 L75.6129047,4.85420996 L75.6129047,6.51113373 L71.3228108,6.51113373 L71.3228108,9.27267336 L76.1491664,9.27267336 L76.1491664,10.9295971 L68.6415021,10.9295971 L68.6415021,0.435746565 Z M53.6261735,0.435746565 L57.2834786,0.435746565 L59.8441284,7.21201249 L62.5302634,0.435746565 L65.9601935,0.435746565 L65.9601935,10.9295971 L63.2788848,10.9295971 L63.2788848,3.48448631 L60.3149662,10.9295971 L58.5243882,10.9295971 L55.7712205,3.48448631 L55.7712205,10.9295971 L53.6261735,10.9295971 L53.6261735,0.435746565 Z M43.9734623,0.435746565 L51.4811266,0.435746565 L51.4811266,2.09267034 L47.1910327,2.09267034 L47.1910327,4.85420996 L50.9448649,4.85420996 L50.9448649,6.51113373 L47.1910327,6.51113373 L47.1910327,9.27267336 L51.4811266,9.27267336 L51.4811266,10.9295971 L43.9734623,10.9295971 L43.9734623,0.435746565 Z M38.610845,0.435746565 L41.8284154,0.435746565 L41.8284154,10.9295971 L40.1676128,10.9295971 L38.610845,10.9295971 L38.610845,0.435746565 Z M92.899838,0.189969538 C93.5883981,0.189969538 94.5547417,0.287175733 95.665876,0.529086604 L95.9908506,0.577689701 L95.9908506,2.58091054 C94.9183272,2.19319038 94.0699611,1.9993303 93.2564521,1.9993303 C92.098663,1.9993303 91.4980498,2.32243044 91.4980498,2.96863071 C91.4980498,3.21109389 91.5886781,3.40495397 91.8391123,3.58279712 C92.0268039,3.71203717 92.5335712,3.97051728 93.4098229,4.3902713 C94.6459062,4.93981769 95.4862283,5.44020867 95.9088026,5.87653193 C96.3935832,6.37747522 96.6418724,7.02367549 96.6418724,7.83114967 C96.6418724,8.97829323 96.155483,9.83437052 95.1853855,10.4485369 C94.3874281,10.932911 93.4167943,11.1753742 92.180711,11.1753742 C91.1323193,11.1753742 90.0919716,11.0461341 89.0194481,10.787654 L89.0194481,8.7037962 C90.0919716,9.07549943 91.1473346,9.2688072 92.0546895,9.2688072 C93.2752212,9.2688072 93.8854871,8.94625937 93.8854871,8.28348986 C93.8854871,8.02500976 93.7996852,7.83114967 93.6275452,7.65385883 C93.4398536,7.47601568 92.9663345,7.21753557 92.215568,6.89443543 C90.8695511,6.32887212 89.9916906,5.82792883 89.5691164,5.42419174 C89.0526963,4.90723152 88.7700864,4.21242815 88.7700864,3.38893704 C88.7700864,2.3550166 89.1454696,1.54699011 89.9278755,1.01401296 C90.6786419,0.464466577 91.6953941,0.189969538 92.899838,0.189969538 L92.899838,0.189969538 Z M33.4332379,0.189969538 C34.1057101,0.189969538 34.8570128,0.320314209 36.465798,0.579898933 L36.465798,2.60907825 C35.3932745,2.21970116 34.5438359,2.02473646 33.7303269,2.02473646 C32.5880894,2.02473646 31.9713884,2.34949352 31.9713884,2.99900764 C31.9713884,3.24257544 32.0700606,3.43754013 32.3049432,3.59936636 C32.4926348,3.72971103 33.0111999,3.98929575 33.8558121,4.41125901 C35.1235349,4.97958386 35.9461604,5.46671945 36.3526468,5.90525194 C36.8535152,6.39238753 37.0846441,7.05791858 37.0846441,7.86981123 C37.0846441,9.02247787 36.5982547,9.88297361 35.6281572,10.4999016 C34.8613029,11.0030541 33.8676099,11.2466219 32.6470782,11.2466219 C31.5992228,11.2140357 30.5669189,11.0842433 29.4943954,10.8246586 L29.4943954,8.73030698 C30.5669189,9.10366713 31.644805,9.29863183 32.5210567,9.29863183 C33.7260368,9.29863183 34.3320126,8.97387477 34.3320126,8.30834372 C34.3320126,8.04820669 34.2435294,7.85324199 34.0402862,7.67484653 C33.8525946,7.49645107 33.3940908,7.23631404 32.6583397,6.91155698 C31.312859,6.34378443 30.4344623,5.84007961 30.011888,5.43413328 C29.4799164,4.88237767 29.212858,4.21684662 29.212858,3.40495397 C29.212858,2.36551045 29.6407949,1.55417011 30.4232008,1.01843143 C31.1745035,0.466123501 32.2282578,0.189969538 33.4332379,0.189969538 L33.4332379,0.189969538 Z" id="Siemens" fill="#009999"></path>
                </g>
            </g>
        </g>
    </g>
</svg>